<svg width="12" height="16" viewBox="0 0 12 16" fill="none" xmlns="http://www.w3.org/2000/svg">
<path d="M5.25 2H6.75M6 11.75V11.7575M1.5 2.75C1.5 2.35218 1.65804 1.97064 1.93934 1.68934C2.22064 1.40804 2.60218 1.25 3 1.25H9C9.39782 1.25 9.77936 1.40804 10.0607 1.68934C10.342 1.97064 10.5 2.35218 10.5 2.75V13.25C10.5 13.6478 10.342 14.0294 10.0607 14.3107C9.77936 14.592 9.39782 14.75 9 14.75H3C2.60218 14.75 2.22064 14.592 1.93934 14.3107C1.65804 14.0294 1.5 13.6478 1.5 13.25V2.75Z" stroke="#EC642C" stroke-width="1.5" stroke-linecap="round" stroke-linejoin="round"/>
</svg>
