<svg width="62" height="23" viewBox="0 0 62 23" fill="none" xmlns="http://www.w3.org/2000/svg">
<path d="M33.2234 0.320821C42.79 0.765443 51.3669 3.9352 59.2266 9.32803C61.4354 10.8483 61.7079 12.0961 59.9151 14.1041C58.2083 16.026 56.6736 18.1057 55.225 20.2284C53.6904 22.4945 52.2848 22.9534 49.7748 21.261C39.276 14.1758 28.1175 13.4873 16.6003 18.5933C14.8792 19.3535 13.1868 20.3288 11.7095 21.4905C9.85931 22.9535 8.56847 22.6667 7.24895 20.8738C5.45612 18.4499 3.60591 16.0547 1.69834 13.7169C0.29276 12.0101 0.651335 10.8053 2.35811 9.57183C11.5804 2.87383 21.9215 -0.0234159 33.2234 0.306465V0.320821Z" fill="#EC642C"/>
</svg>
