<svg width="98" height="66" viewBox="0 0 98 66" fill="none" xmlns="http://www.w3.org/2000/svg">
<path d="M0.278007 29.3943C0.306692 18.1783 2.57282 10.0891 6.81824 2.50185C8.13776 0.135316 9.38557 -0.553071 11.0493 2.11466C11.2214 2.40151 11.4222 2.674 11.6661 2.90348C16.9298 7.98077 19.0955 13.3162 16.184 20.9608C13.9609 26.8126 15.2804 33.3815 17.7903 39.3337C19.1242 42.4891 19.5832 42.5608 21.6485 39.8931C29.8381 29.3799 37.9991 18.8525 46.1887 8.33931C48.7991 4.99748 49.1577 4.96882 51.7967 8.36802C59.8429 18.7091 67.8174 29.1074 75.878 39.4341C76.5808 40.3377 77.011 42.0158 78.4883 41.6716C79.7792 41.3704 79.9082 39.764 80.3385 38.6596C83.2644 30.9003 83.3074 23.0692 80.3816 15.3529C79.4063 12.7855 79.7648 10.9067 81.4429 8.9274C83.1784 6.87641 84.7704 4.71062 86.4341 2.60226C88.9298 -0.567462 89.3887 -0.553141 91.411 3.11857C94.6812 9.07076 96.8756 15.4389 97.3776 22.223C98.611 38.5449 93.3616 52.4142 81.0413 63.3863C77.7999 66.2835 77.4987 66.1401 74.8166 62.6692C66.9282 52.4859 58.968 42.36 51.1656 32.1194C49.4302 29.8533 48.4405 29.9393 46.7338 32.1624C38.7736 42.5751 30.6127 52.8158 22.6955 63.2573C20.8453 65.6812 19.4541 65.7385 17.3027 63.8453C6.12979 54.0349 0.63658 41.6572 0.263672 29.3799L0.278007 29.3943Z" fill="#EF8A32"/>
</svg>
